<svg width="285" height="47" viewBox="0 0 285 47" fill="none" xmlns="http://www.w3.org/2000/svg">
<path d="M1.575 43V32.5H2.805L7.515 40.435H6.855L11.505 32.5H12.735L12.75 43H11.31L11.295 34.765H11.64L7.5 41.725H6.81L2.64 34.765H3.015V43H1.575ZM18.9312 43.09C18.0812 43.09 17.3312 42.915 16.6812 42.565C16.0412 42.215 15.5412 41.735 15.1812 41.125C14.8312 40.515 14.6562 39.815 14.6562 39.025C14.6562 38.235 14.8262 37.535 15.1662 36.925C15.5162 36.315 15.9912 35.84 16.5912 35.5C17.2012 35.15 17.8862 34.975 18.6462 34.975C19.4162 34.975 20.0962 35.145 20.6862 35.485C21.2762 35.825 21.7362 36.305 22.0662 36.925C22.4062 37.535 22.5762 38.25 22.5762 39.07C22.5762 39.13 22.5712 39.2 22.5612 39.28C22.5612 39.36 22.5562 39.435 22.5462 39.505H15.7812V38.47H21.7962L21.2112 38.83C21.2212 38.32 21.1162 37.865 20.8962 37.465C20.6762 37.065 20.3712 36.755 19.9812 36.535C19.6012 36.305 19.1562 36.19 18.6462 36.19C18.1462 36.19 17.7012 36.305 17.3112 36.535C16.9212 36.755 16.6162 37.07 16.3962 37.48C16.1762 37.88 16.0662 38.34 16.0662 38.86V39.1C16.0662 39.63 16.1862 40.105 16.4262 40.525C16.6762 40.935 17.0212 41.255 17.4612 41.485C17.9012 41.715 18.4062 41.83 18.9762 41.83C19.4462 41.83 19.8712 41.75 20.2512 41.59C20.6412 41.43 20.9812 41.19 21.2712 40.87L22.0662 41.8C21.7062 42.22 21.2562 42.54 20.7162 42.76C20.1862 42.98 19.5912 43.09 18.9312 43.09ZM28.5207 34.975C29.1707 34.975 29.7407 35.1 30.2307 35.35C30.7307 35.6 31.1207 35.98 31.4007 36.49C31.6807 37 31.8207 37.645 31.8207 38.425V43H30.3807V38.59C30.3807 37.82 30.1907 37.24 29.8107 36.85C29.4407 36.46 28.9157 36.265 28.2357 36.265C27.7257 36.265 27.2807 36.365 26.9007 36.565C26.5207 36.765 26.2257 37.06 26.0157 37.45C25.8157 37.84 25.7157 38.325 25.7157 38.905V43H24.2757V35.05H25.6557V37.195L25.4307 36.625C25.6907 36.105 26.0907 35.7 26.6307 35.41C27.1707 35.12 27.8007 34.975 28.5207 34.975ZM37.6507 43.09C36.8407 43.09 36.1157 42.915 35.4757 42.565C34.8457 42.215 34.3507 41.735 33.9907 41.125C33.6307 40.515 33.4507 39.815 33.4507 39.025C33.4507 38.235 33.6307 37.535 33.9907 36.925C34.3507 36.315 34.8457 35.84 35.4757 35.5C36.1157 35.15 36.8407 34.975 37.6507 34.975C38.3707 34.975 39.0107 35.12 39.5707 35.41C40.1407 35.69 40.5807 36.11 40.8907 36.67L39.7957 37.375C39.5357 36.985 39.2157 36.7 38.8357 36.52C38.4657 36.33 38.0657 36.235 37.6357 36.235C37.1157 36.235 36.6507 36.35 36.2407 36.58C35.8307 36.81 35.5057 37.135 35.2657 37.555C35.0257 37.965 34.9057 38.455 34.9057 39.025C34.9057 39.595 35.0257 40.09 35.2657 40.51C35.5057 40.93 35.8307 41.255 36.2407 41.485C36.6507 41.715 37.1157 41.83 37.6357 41.83C38.0657 41.83 38.4657 41.74 38.8357 41.56C39.2157 41.37 39.5357 41.08 39.7957 40.69L40.8907 41.38C40.5807 41.93 40.1407 42.355 39.5707 42.655C39.0107 42.945 38.3707 43.09 37.6507 43.09ZM45.8779 43.09C45.0279 43.09 44.2779 42.915 43.6279 42.565C42.9879 42.215 42.4879 41.735 42.1279 41.125C41.7779 40.515 41.6029 39.815 41.6029 39.025C41.6029 38.235 41.7729 37.535 42.1129 36.925C42.4629 36.315 42.9379 35.84 43.5379 35.5C44.1479 35.15 44.8329 34.975 45.5929 34.975C46.3629 34.975 47.0429 35.145 47.6329 35.485C48.2229 35.825 48.6829 36.305 49.0129 36.925C49.3529 37.535 49.5229 38.25 49.5229 39.07C49.5229 39.13 49.5179 39.2 49.5079 39.28C49.5079 39.36 49.5029 39.435 49.4929 39.505H42.7279V38.47H48.7429L48.1579 38.83C48.1679 38.32 48.0629 37.865 47.8429 37.465C47.6229 37.065 47.3179 36.755 46.9279 36.535C46.5479 36.305 46.1029 36.19 45.5929 36.19C45.0929 36.19 44.6479 36.305 44.2579 36.535C43.8679 36.755 43.5629 37.07 43.3429 37.48C43.1229 37.88 43.0129 38.34 43.0129 38.86V39.1C43.0129 39.63 43.1329 40.105 43.3729 40.525C43.6229 40.935 43.9679 41.255 44.4079 41.485C44.8479 41.715 45.3529 41.83 45.9229 41.83C46.3929 41.83 46.8179 41.75 47.1979 41.59C47.5879 41.43 47.9279 41.19 48.2179 40.87L49.0129 41.8C48.6529 42.22 48.2029 42.54 47.6629 42.76C47.1329 42.98 46.5379 43.09 45.8779 43.09ZM51.2224 43V35.05H52.6024V37.21L52.4674 36.67C52.6874 36.12 53.0574 35.7 53.5774 35.41C54.0974 35.12 54.7374 34.975 55.4974 34.975V36.37C55.4374 36.36 55.3774 36.355 55.3174 36.355C55.2674 36.355 55.2174 36.355 55.1674 36.355C54.3974 36.355 53.7874 36.585 53.3374 37.045C52.8874 37.505 52.6624 38.17 52.6624 39.04V43H51.2224ZM60.184 43.09C59.414 43.09 58.724 42.92 58.114 42.58C57.514 42.24 57.039 41.765 56.689 41.155C56.339 40.545 56.164 39.835 56.164 39.025C56.164 38.215 56.339 37.51 56.689 36.91C57.039 36.3 57.514 35.825 58.114 35.485C58.724 35.145 59.414 34.975 60.184 34.975C60.854 34.975 61.459 35.125 61.999 35.425C62.539 35.725 62.969 36.175 63.289 36.775C63.619 37.375 63.784 38.125 63.784 39.025C63.784 39.925 63.624 40.675 63.304 41.275C62.994 41.875 62.569 42.33 62.029 42.64C61.489 42.94 60.874 43.09 60.184 43.09ZM60.304 41.83C60.804 41.83 61.254 41.715 61.654 41.485C62.064 41.255 62.384 40.93 62.614 40.51C62.854 40.08 62.974 39.585 62.974 39.025C62.974 38.455 62.854 37.965 62.614 37.555C62.384 37.135 62.064 36.81 61.654 36.58C61.254 36.35 60.804 36.235 60.304 36.235C59.794 36.235 59.339 36.35 58.939 36.58C58.539 36.81 58.219 37.135 57.979 37.555C57.739 37.965 57.619 38.455 57.619 39.025C57.619 39.585 57.739 40.08 57.979 40.51C58.219 40.93 58.539 41.255 58.939 41.485C59.339 41.715 59.794 41.83 60.304 41.83ZM63.019 43V40.855L63.109 39.01L62.959 37.165V31.87H64.399V43H63.019ZM71.7586 43V41.32L71.6836 41.005V38.14C71.6836 37.53 71.5036 37.06 71.1436 36.73C70.7936 36.39 70.2636 36.22 69.5536 36.22C69.0836 36.22 68.6236 36.3 68.1736 36.46C67.7236 36.61 67.3436 36.815 67.0336 37.075L66.4336 35.995C66.8436 35.665 67.3336 35.415 67.9036 35.245C68.4836 35.065 69.0886 34.975 69.7186 34.975C70.8086 34.975 71.6486 35.24 72.2386 35.77C72.8286 36.3 73.1236 37.11 73.1236 38.2V43H71.7586ZM69.1486 43.09C68.5586 43.09 68.0386 42.99 67.5886 42.79C67.1486 42.59 66.8086 42.315 66.5686 41.965C66.3286 41.605 66.2086 41.2 66.2086 40.75C66.2086 40.32 66.3086 39.93 66.5086 39.58C66.7186 39.23 67.0536 38.95 67.5136 38.74C67.9836 38.53 68.6136 38.425 69.4036 38.425H71.9236V39.46H69.4636C68.7436 39.46 68.2586 39.58 68.0086 39.82C67.7586 40.06 67.6336 40.35 67.6336 40.69C67.6336 41.08 67.7886 41.395 68.0986 41.635C68.4086 41.865 68.8386 41.98 69.3886 41.98C69.9286 41.98 70.3986 41.86 70.7986 41.62C71.2086 41.38 71.5036 41.03 71.6836 40.57L71.9686 41.56C71.7786 42.03 71.4436 42.405 70.9636 42.685C70.4836 42.955 69.8786 43.09 69.1486 43.09ZM77.7684 43.09C77.1084 43.09 76.4784 43 75.8784 42.82C75.2884 42.64 74.8234 42.42 74.4834 42.16L75.0834 41.02C75.4234 41.25 75.8434 41.445 76.3434 41.605C76.8434 41.765 77.3534 41.845 77.8734 41.845C78.5434 41.845 79.0234 41.75 79.3134 41.56C79.6134 41.37 79.7634 41.105 79.7634 40.765C79.7634 40.515 79.6734 40.32 79.4934 40.18C79.3134 40.04 79.0734 39.935 78.7734 39.865C78.4834 39.795 78.1584 39.735 77.7984 39.685C77.4384 39.625 77.0784 39.555 76.7184 39.475C76.3584 39.385 76.0284 39.265 75.7284 39.115C75.4284 38.955 75.1884 38.74 75.0084 38.47C74.8284 38.19 74.7384 37.82 74.7384 37.36C74.7384 36.88 74.8734 36.46 75.1434 36.1C75.4134 35.74 75.7934 35.465 76.2834 35.275C76.7834 35.075 77.3734 34.975 78.0534 34.975C78.5734 34.975 79.0984 35.04 79.6284 35.17C80.1684 35.29 80.6084 35.465 80.9484 35.695L80.3334 36.835C79.9734 36.595 79.5984 36.43 79.2084 36.34C78.8184 36.25 78.4284 36.205 78.0384 36.205C77.4084 36.205 76.9384 36.31 76.6284 36.52C76.3184 36.72 76.1634 36.98 76.1634 37.3C76.1634 37.57 76.2534 37.78 76.4334 37.93C76.6234 38.07 76.8634 38.18 77.1534 38.26C77.4534 38.34 77.7834 38.41 78.1434 38.47C78.5034 38.52 78.8634 38.59 79.2234 38.68C79.5834 38.76 79.9084 38.875 80.1984 39.025C80.4984 39.175 80.7384 39.385 80.9184 39.655C81.1084 39.925 81.2034 40.285 81.2034 40.735C81.2034 41.215 81.0634 41.63 80.7834 41.98C80.5034 42.33 80.1084 42.605 79.5984 42.805C79.0884 42.995 78.4784 43.09 77.7684 43.09ZM83.8731 41.08L83.9031 39.235L88.4781 35.05H90.2181L86.7081 38.5L85.9281 39.16L83.8731 41.08ZM82.7031 43V31.87H84.1431V43H82.7031ZM88.7781 43L85.6581 39.13L86.5881 37.975L90.5481 43H88.7781ZM96.4348 43V41.32L96.3598 41.005V38.14C96.3598 37.53 96.1798 37.06 95.8198 36.73C95.4698 36.39 94.9398 36.22 94.2298 36.22C93.7598 36.22 93.2998 36.3 92.8498 36.46C92.3998 36.61 92.0198 36.815 91.7098 37.075L91.1098 35.995C91.5198 35.665 92.0098 35.415 92.5798 35.245C93.1598 35.065 93.7648 34.975 94.3948 34.975C95.4848 34.975 96.3248 35.24 96.9148 35.77C97.5048 36.3 97.7998 37.11 97.7998 38.2V43H96.4348ZM93.8248 43.09C93.2348 43.09 92.7148 42.99 92.2648 42.79C91.8248 42.59 91.4848 42.315 91.2448 41.965C91.0048 41.605 90.8848 41.2 90.8848 40.75C90.8848 40.32 90.9848 39.93 91.1848 39.58C91.3948 39.23 91.7298 38.95 92.1898 38.74C92.6598 38.53 93.2898 38.425 94.0798 38.425H96.5998V39.46H94.1398C93.4198 39.46 92.9348 39.58 92.6848 39.82C92.4348 40.06 92.3098 40.35 92.3098 40.69C92.3098 41.08 92.4648 41.395 92.7748 41.635C93.0848 41.865 93.5148 41.98 94.0648 41.98C94.6048 41.98 95.0748 41.86 95.4748 41.62C95.8848 41.38 96.1798 41.03 96.3598 40.57L96.6448 41.56C96.4548 42.03 96.1198 42.405 95.6398 42.685C95.1598 42.955 94.5548 43.09 93.8248 43.09ZM104.41 34.975C105.06 34.975 105.63 35.1 106.12 35.35C106.62 35.6 107.01 35.98 107.29 36.49C107.57 37 107.71 37.645 107.71 38.425V43H106.27V38.59C106.27 37.82 106.08 37.24 105.7 36.85C105.33 36.46 104.805 36.265 104.125 36.265C103.615 36.265 103.17 36.365 102.79 36.565C102.41 36.765 102.115 37.06 101.905 37.45C101.705 37.84 101.605 38.325 101.605 38.905V43H100.165V35.05H101.545V37.195L101.32 36.625C101.58 36.105 101.98 35.7 102.52 35.41C103.06 35.12 103.69 34.975 104.41 34.975ZM114.013 43V32.5H118.723C119.933 32.5 120.863 32.745 121.513 33.235C122.163 33.715 122.488 34.375 122.488 35.215C122.488 35.785 122.358 36.265 122.098 36.655C121.848 37.045 121.508 37.345 121.078 37.555C120.648 37.765 120.183 37.87 119.683 37.87L119.953 37.42C120.553 37.42 121.083 37.525 121.543 37.735C122.003 37.945 122.368 38.255 122.638 38.665C122.908 39.065 123.043 39.565 123.043 40.165C123.043 41.065 122.703 41.765 122.023 42.265C121.353 42.755 120.353 43 119.023 43H114.013ZM115.513 41.785H118.963C119.793 41.785 120.428 41.645 120.868 41.365C121.308 41.085 121.528 40.645 121.528 40.045C121.528 39.435 121.308 38.99 120.868 38.71C120.428 38.43 119.793 38.29 118.963 38.29H115.378V37.075H118.588C119.348 37.075 119.938 36.935 120.358 36.655C120.778 36.375 120.988 35.955 120.988 35.395C120.988 34.835 120.778 34.415 120.358 34.135C119.938 33.855 119.348 33.715 118.588 33.715H115.513V41.785ZM129.79 43V41.32L129.715 41.005V38.14C129.715 37.53 129.535 37.06 129.175 36.73C128.825 36.39 128.295 36.22 127.585 36.22C127.115 36.22 126.655 36.3 126.205 36.46C125.755 36.61 125.375 36.815 125.065 37.075L124.465 35.995C124.875 35.665 125.365 35.415 125.935 35.245C126.515 35.065 127.12 34.975 127.75 34.975C128.84 34.975 129.68 35.24 130.27 35.77C130.86 36.3 131.155 37.11 131.155 38.2V43H129.79ZM127.18 43.09C126.59 43.09 126.07 42.99 125.62 42.79C125.18 42.59 124.84 42.315 124.6 41.965C124.36 41.605 124.24 41.2 124.24 40.75C124.24 40.32 124.34 39.93 124.54 39.58C124.75 39.23 125.085 38.95 125.545 38.74C126.015 38.53 126.645 38.425 127.435 38.425H129.955V39.46H127.495C126.775 39.46 126.29 39.58 126.04 39.82C125.79 40.06 125.665 40.35 125.665 40.69C125.665 41.08 125.82 41.395 126.13 41.635C126.44 41.865 126.87 41.98 127.42 41.98C127.96 41.98 128.43 41.86 128.83 41.62C129.24 41.38 129.535 41.03 129.715 40.57L130 41.56C129.81 42.03 129.475 42.405 128.995 42.685C128.515 42.955 127.91 43.09 127.18 43.09ZM137.765 34.975C138.415 34.975 138.985 35.1 139.475 35.35C139.975 35.6 140.365 35.98 140.645 36.49C140.925 37 141.065 37.645 141.065 38.425V43H139.625V38.59C139.625 37.82 139.435 37.24 139.055 36.85C138.685 36.46 138.16 36.265 137.48 36.265C136.97 36.265 136.525 36.365 136.145 36.565C135.765 36.765 135.47 37.06 135.26 37.45C135.06 37.84 134.96 38.325 134.96 38.905V43H133.52V35.05H134.9V37.195L134.675 36.625C134.935 36.105 135.335 35.7 135.875 35.41C136.415 35.12 137.045 34.975 137.765 34.975ZM146.91 46C146.18 46 145.47 45.895 144.78 45.685C144.1 45.485 143.545 45.195 143.115 44.815L143.805 43.705C144.175 44.025 144.63 44.275 145.17 44.455C145.71 44.645 146.275 44.74 146.865 44.74C147.805 44.74 148.495 44.52 148.935 44.08C149.375 43.64 149.595 42.97 149.595 42.07V40.39L149.745 38.815L149.67 37.225V35.05H151.035V41.92C151.035 43.32 150.685 44.35 149.985 45.01C149.285 45.67 148.26 46 146.91 46ZM146.73 42.67C145.96 42.67 145.27 42.51 144.66 42.19C144.06 41.86 143.58 41.405 143.22 40.825C142.87 40.245 142.695 39.575 142.695 38.815C142.695 38.045 142.87 37.375 143.22 36.805C143.58 36.225 144.06 35.775 144.66 35.455C145.27 35.135 145.96 34.975 146.73 34.975C147.41 34.975 148.03 35.115 148.59 35.395C149.15 35.665 149.595 36.085 149.925 36.655C150.265 37.225 150.435 37.945 150.435 38.815C150.435 39.675 150.265 40.39 149.925 40.96C149.595 41.53 149.15 41.96 148.59 42.25C148.03 42.53 147.41 42.67 146.73 42.67ZM146.895 41.41C147.425 41.41 147.895 41.3 148.305 41.08C148.715 40.86 149.035 40.555 149.265 40.165C149.505 39.775 149.625 39.325 149.625 38.815C149.625 38.305 149.505 37.855 149.265 37.465C149.035 37.075 148.715 36.775 148.305 36.565C147.895 36.345 147.425 36.235 146.895 36.235C146.365 36.235 145.89 36.345 145.47 36.565C145.06 36.775 144.735 37.075 144.495 37.465C144.265 37.855 144.15 38.305 144.15 38.815C144.15 39.325 144.265 39.775 144.495 40.165C144.735 40.555 145.06 40.86 145.47 41.08C145.89 41.3 146.365 41.41 146.895 41.41ZM155.767 43.09C155.107 43.09 154.477 43 153.877 42.82C153.287 42.64 152.822 42.42 152.482 42.16L153.082 41.02C153.422 41.25 153.842 41.445 154.342 41.605C154.842 41.765 155.352 41.845 155.872 41.845C156.542 41.845 157.022 41.75 157.312 41.56C157.612 41.37 157.762 41.105 157.762 40.765C157.762 40.515 157.672 40.32 157.492 40.18C157.312 40.04 157.072 39.935 156.772 39.865C156.482 39.795 156.157 39.735 155.797 39.685C155.437 39.625 155.077 39.555 154.717 39.475C154.357 39.385 154.027 39.265 153.727 39.115C153.427 38.955 153.187 38.74 153.007 38.47C152.827 38.19 152.737 37.82 152.737 37.36C152.737 36.88 152.872 36.46 153.142 36.1C153.412 35.74 153.792 35.465 154.282 35.275C154.782 35.075 155.372 34.975 156.052 34.975C156.572 34.975 157.097 35.04 157.627 35.17C158.167 35.29 158.607 35.465 158.947 35.695L158.332 36.835C157.972 36.595 157.597 36.43 157.207 36.34C156.817 36.25 156.427 36.205 156.037 36.205C155.407 36.205 154.937 36.31 154.627 36.52C154.317 36.72 154.162 36.98 154.162 37.3C154.162 37.57 154.252 37.78 154.432 37.93C154.622 38.07 154.862 38.18 155.152 38.26C155.452 38.34 155.782 38.41 156.142 38.47C156.502 38.52 156.862 38.59 157.222 38.68C157.582 38.76 157.907 38.875 158.197 39.025C158.497 39.175 158.737 39.385 158.917 39.655C159.107 39.925 159.202 40.285 159.202 40.735C159.202 41.215 159.062 41.63 158.782 41.98C158.502 42.33 158.107 42.605 157.597 42.805C157.087 42.995 156.477 43.09 155.767 43.09ZM165.636 43V41.32L165.561 41.005V38.14C165.561 37.53 165.381 37.06 165.021 36.73C164.671 36.39 164.141 36.22 163.431 36.22C162.961 36.22 162.501 36.3 162.051 36.46C161.601 36.61 161.221 36.815 160.911 37.075L160.311 35.995C160.721 35.665 161.211 35.415 161.781 35.245C162.361 35.065 162.966 34.975 163.596 34.975C164.686 34.975 165.526 35.24 166.116 35.77C166.706 36.3 167.001 37.11 167.001 38.2V43H165.636ZM163.026 43.09C162.436 43.09 161.916 42.99 161.466 42.79C161.026 42.59 160.686 42.315 160.446 41.965C160.206 41.605 160.086 41.2 160.086 40.75C160.086 40.32 160.186 39.93 160.386 39.58C160.596 39.23 160.931 38.95 161.391 38.74C161.861 38.53 162.491 38.425 163.281 38.425H165.801V39.46H163.341C162.621 39.46 162.136 39.58 161.886 39.82C161.636 40.06 161.511 40.35 161.511 40.69C161.511 41.08 161.666 41.395 161.976 41.635C162.286 41.865 162.716 41.98 163.266 41.98C163.806 41.98 164.276 41.86 164.676 41.62C165.086 41.38 165.381 41.03 165.561 40.57L165.846 41.56C165.656 42.03 165.321 42.405 164.841 42.685C164.361 42.955 163.756 43.09 163.026 43.09ZM176.379 43.09C175.609 43.09 174.919 42.92 174.309 42.58C173.709 42.24 173.234 41.765 172.884 41.155C172.534 40.545 172.359 39.835 172.359 39.025C172.359 38.215 172.534 37.51 172.884 36.91C173.234 36.3 173.709 35.825 174.309 35.485C174.919 35.145 175.609 34.975 176.379 34.975C177.049 34.975 177.654 35.125 178.194 35.425C178.734 35.725 179.164 36.175 179.484 36.775C179.814 37.375 179.979 38.125 179.979 39.025C179.979 39.925 179.819 40.675 179.499 41.275C179.189 41.875 178.764 42.33 178.224 42.64C177.684 42.94 177.069 43.09 176.379 43.09ZM176.499 41.83C176.999 41.83 177.449 41.715 177.849 41.485C178.259 41.255 178.579 40.93 178.809 40.51C179.049 40.08 179.169 39.585 179.169 39.025C179.169 38.455 179.049 37.965 178.809 37.555C178.579 37.135 178.259 36.81 177.849 36.58C177.449 36.35 176.999 36.235 176.499 36.235C175.989 36.235 175.534 36.35 175.134 36.58C174.734 36.81 174.414 37.135 174.174 37.555C173.934 37.965 173.814 38.455 173.814 39.025C173.814 39.585 173.934 40.08 174.174 40.51C174.414 40.93 174.734 41.255 175.134 41.485C175.534 41.715 175.989 41.83 176.499 41.83ZM179.214 43V40.855L179.304 39.01L179.154 37.165V31.87H180.594V43H179.214ZM186.559 43.09C185.709 43.09 184.959 42.915 184.309 42.565C183.669 42.215 183.169 41.735 182.809 41.125C182.459 40.515 182.284 39.815 182.284 39.025C182.284 38.235 182.454 37.535 182.794 36.925C183.144 36.315 183.619 35.84 184.219 35.5C184.829 35.15 185.514 34.975 186.274 34.975C187.044 34.975 187.724 35.145 188.314 35.485C188.904 35.825 189.364 36.305 189.694 36.925C190.034 37.535 190.204 38.25 190.204 39.07C190.204 39.13 190.199 39.2 190.189 39.28C190.189 39.36 190.184 39.435 190.174 39.505H183.409V38.47H189.424L188.839 38.83C188.849 38.32 188.744 37.865 188.524 37.465C188.304 37.065 187.999 36.755 187.609 36.535C187.229 36.305 186.784 36.19 186.274 36.19C185.774 36.19 185.329 36.305 184.939 36.535C184.549 36.755 184.244 37.07 184.024 37.48C183.804 37.88 183.694 38.34 183.694 38.86V39.1C183.694 39.63 183.814 40.105 184.054 40.525C184.304 40.935 184.649 41.255 185.089 41.485C185.529 41.715 186.034 41.83 186.604 41.83C187.074 41.83 187.499 41.75 187.879 41.59C188.269 41.43 188.609 41.19 188.899 40.87L189.694 41.8C189.334 42.22 188.884 42.54 188.344 42.76C187.814 42.98 187.219 43.09 186.559 43.09ZM196.149 34.975C196.799 34.975 197.369 35.1 197.859 35.35C198.359 35.6 198.749 35.98 199.029 36.49C199.309 37 199.449 37.645 199.449 38.425V43H198.009V38.59C198.009 37.82 197.819 37.24 197.439 36.85C197.069 36.46 196.544 36.265 195.864 36.265C195.354 36.265 194.909 36.365 194.529 36.565C194.149 36.765 193.854 37.06 193.644 37.45C193.444 37.84 193.344 38.325 193.344 38.905V43H191.904V35.05H193.284V37.195L193.059 36.625C193.319 36.105 193.719 35.7 194.259 35.41C194.799 35.12 195.429 34.975 196.149 34.975ZM205.294 46C204.564 46 203.854 45.895 203.164 45.685C202.484 45.485 201.929 45.195 201.499 44.815L202.189 43.705C202.559 44.025 203.014 44.275 203.554 44.455C204.094 44.645 204.659 44.74 205.249 44.74C206.189 44.74 206.879 44.52 207.319 44.08C207.759 43.64 207.979 42.97 207.979 42.07V40.39L208.129 38.815L208.054 37.225V35.05H209.419V41.92C209.419 43.32 209.069 44.35 208.369 45.01C207.669 45.67 206.644 46 205.294 46ZM205.114 42.67C204.344 42.67 203.654 42.51 203.044 42.19C202.444 41.86 201.964 41.405 201.604 40.825C201.254 40.245 201.079 39.575 201.079 38.815C201.079 38.045 201.254 37.375 201.604 36.805C201.964 36.225 202.444 35.775 203.044 35.455C203.654 35.135 204.344 34.975 205.114 34.975C205.794 34.975 206.414 35.115 206.974 35.395C207.534 35.665 207.979 36.085 208.309 36.655C208.649 37.225 208.819 37.945 208.819 38.815C208.819 39.675 208.649 40.39 208.309 40.96C207.979 41.53 207.534 41.96 206.974 42.25C206.414 42.53 205.794 42.67 205.114 42.67ZM205.279 41.41C205.809 41.41 206.279 41.3 206.689 41.08C207.099 40.86 207.419 40.555 207.649 40.165C207.889 39.775 208.009 39.325 208.009 38.815C208.009 38.305 207.889 37.855 207.649 37.465C207.419 37.075 207.099 36.775 206.689 36.565C206.279 36.345 205.809 36.235 205.279 36.235C204.749 36.235 204.274 36.345 203.854 36.565C203.444 36.775 203.119 37.075 202.879 37.465C202.649 37.855 202.534 38.305 202.534 38.815C202.534 39.325 202.649 39.775 202.879 40.165C203.119 40.555 203.444 40.86 203.854 41.08C204.274 41.3 204.749 41.41 205.279 41.41ZM216.805 43V41.32L216.73 41.005V38.14C216.73 37.53 216.55 37.06 216.19 36.73C215.84 36.39 215.31 36.22 214.6 36.22C214.13 36.22 213.67 36.3 213.22 36.46C212.77 36.61 212.39 36.815 212.08 37.075L211.48 35.995C211.89 35.665 212.38 35.415 212.95 35.245C213.53 35.065 214.135 34.975 214.765 34.975C215.855 34.975 216.695 35.24 217.285 35.77C217.875 36.3 218.17 37.11 218.17 38.2V43H216.805ZM214.195 43.09C213.605 43.09 213.085 42.99 212.635 42.79C212.195 42.59 211.855 42.315 211.615 41.965C211.375 41.605 211.255 41.2 211.255 40.75C211.255 40.32 211.355 39.93 211.555 39.58C211.765 39.23 212.1 38.95 212.56 38.74C213.03 38.53 213.66 38.425 214.45 38.425H216.97V39.46H214.51C213.79 39.46 213.305 39.58 213.055 39.82C212.805 40.06 212.68 40.35 212.68 40.69C212.68 41.08 212.835 41.395 213.145 41.635C213.455 41.865 213.885 41.98 214.435 41.98C214.975 41.98 215.445 41.86 215.845 41.62C216.255 41.38 216.55 41.03 216.73 40.57L217.015 41.56C216.825 42.03 216.49 42.405 216.01 42.685C215.53 42.955 214.925 43.09 214.195 43.09ZM224.78 34.975C225.43 34.975 226 35.1 226.49 35.35C226.99 35.6 227.38 35.98 227.66 36.49C227.94 37 228.08 37.645 228.08 38.425V43H226.64V38.59C226.64 37.82 226.45 37.24 226.07 36.85C225.7 36.46 225.175 36.265 224.495 36.265C223.985 36.265 223.54 36.365 223.16 36.565C222.78 36.765 222.485 37.06 222.275 37.45C222.075 37.84 221.975 38.325 221.975 38.905V43H220.535V35.05H221.915V37.195L221.69 36.625C221.95 36.105 222.35 35.7 222.89 35.41C223.43 35.12 224.06 34.975 224.78 34.975ZM232.793 43L237.548 32.5H239.033L243.803 43H242.228L237.983 33.34H238.583L234.338 43H232.793ZM234.818 40.375L235.223 39.175H241.133L241.568 40.375H234.818ZM246.03 41.08L246.06 39.235L250.635 35.05H252.375L248.865 38.5L248.085 39.16L246.03 41.08ZM244.86 43V31.87H246.3V43H244.86ZM250.935 43L247.815 39.13L248.745 37.975L252.705 43H250.935ZM258.048 34.975C258.698 34.975 259.268 35.1 259.758 35.35C260.258 35.6 260.648 35.98 260.928 36.49C261.208 37 261.348 37.645 261.348 38.425V43H259.908V38.59C259.908 37.82 259.718 37.24 259.338 36.85C258.968 36.46 258.443 36.265 257.763 36.265C257.253 36.265 256.808 36.365 256.428 36.565C256.048 36.765 255.753 37.06 255.543 37.45C255.343 37.84 255.243 38.325 255.243 38.905V43H253.803V31.87H255.243V37.195L254.958 36.625C255.218 36.105 255.618 35.7 256.158 35.41C256.698 35.12 257.328 34.975 258.048 34.975ZM263.713 43V31.87H265.153V43H263.713ZM272.537 43V41.32L272.462 41.005V38.14C272.462 37.53 272.282 37.06 271.922 36.73C271.572 36.39 271.042 36.22 270.332 36.22C269.862 36.22 269.402 36.3 268.952 36.46C268.502 36.61 268.122 36.815 267.812 37.075L267.212 35.995C267.622 35.665 268.112 35.415 268.682 35.245C269.262 35.065 269.867 34.975 270.497 34.975C271.587 34.975 272.427 35.24 273.017 35.77C273.607 36.3 273.902 37.11 273.902 38.2V43H272.537ZM269.927 43.09C269.337 43.09 268.817 42.99 268.367 42.79C267.927 42.59 267.587 42.315 267.347 41.965C267.107 41.605 266.987 41.2 266.987 40.75C266.987 40.32 267.087 39.93 267.287 39.58C267.497 39.23 267.832 38.95 268.292 38.74C268.762 38.53 269.392 38.425 270.182 38.425H272.702V39.46H270.242C269.522 39.46 269.037 39.58 268.787 39.82C268.537 40.06 268.412 40.35 268.412 40.69C268.412 41.08 268.567 41.395 268.877 41.635C269.187 41.865 269.617 41.98 270.167 41.98C270.707 41.98 271.177 41.86 271.577 41.62C271.987 41.38 272.282 41.03 272.462 40.57L272.747 41.56C272.557 42.03 272.222 42.405 271.742 42.685C271.262 42.955 270.657 43.09 269.927 43.09ZM277.437 41.08L277.467 39.235L282.042 35.05H283.782L280.272 38.5L279.492 39.16L277.437 41.08ZM276.267 43V31.87H277.707V43H276.267ZM282.342 43L279.222 39.13L280.152 37.975L284.112 43H282.342Z" fill="black" fill-opacity="0.8"/>
<path d="M7.584 23.336C6.208 23.336 4.88 23.168 3.6 22.832C2.336 22.48 1.304 22.032 0.504 21.488L2.064 17.984C2.816 18.464 3.68 18.864 4.656 19.184C5.648 19.488 6.632 19.64 7.608 19.64C8.264 19.64 8.792 19.584 9.192 19.472C9.592 19.344 9.88 19.184 10.056 18.992C10.248 18.784 10.344 18.544 10.344 18.272C10.344 17.888 10.168 17.584 9.816 17.36C9.464 17.136 9.008 16.952 8.448 16.808C7.888 16.664 7.264 16.52 6.576 16.376C5.904 16.232 5.224 16.048 4.536 15.824C3.864 15.6 3.248 15.312 2.688 14.96C2.128 14.592 1.672 14.12 1.32 13.544C0.968 12.952 0.792 12.208 0.792 11.312C0.792 10.304 1.064 9.392 1.608 8.576C2.168 7.76 3 7.104 4.104 6.608C5.208 6.112 6.584 5.864 8.232 5.864C9.336 5.864 10.416 5.992 11.472 6.248C12.544 6.488 13.496 6.848 14.328 7.328L12.864 10.856C12.064 10.424 11.272 10.104 10.488 9.896C9.704 9.672 8.944 9.56 8.208 9.56C7.552 9.56 7.024 9.632 6.624 9.776C6.224 9.904 5.936 10.08 5.76 10.304C5.584 10.528 5.496 10.784 5.496 11.072C5.496 11.44 5.664 11.736 6 11.96C6.352 12.168 6.808 12.344 7.368 12.488C7.944 12.616 8.568 12.752 9.24 12.896C9.928 13.04 10.608 13.224 11.28 13.448C11.968 13.656 12.592 13.944 13.152 14.312C13.712 14.664 14.16 15.136 14.496 15.728C14.848 16.304 15.024 17.032 15.024 17.912C15.024 18.888 14.744 19.792 14.184 20.624C13.64 21.44 12.816 22.096 11.712 22.592C10.624 23.088 9.248 23.336 7.584 23.336ZM17.2191 23V6.2H21.1311L28.0911 17.624H26.0271L32.7951 6.2H36.7071L36.7551 23H32.3871L32.3391 12.848H33.0831L28.0191 21.344H25.9071L20.6991 12.848H21.6111V23H17.2191ZM40.1175 23V6.2H47.7975C49.3335 6.2 50.6535 6.448 51.7575 6.944C52.8775 7.44 53.7415 8.16 54.3495 9.104C54.9575 10.032 55.2615 11.136 55.2615 12.416C55.2615 13.68 54.9575 14.776 54.3495 15.704C53.7415 16.632 52.8775 17.352 51.7575 17.864C50.6535 18.36 49.3335 18.608 47.7975 18.608H42.7575L44.8695 16.544V23H40.1175ZM44.8695 17.048L42.7575 14.864H47.5095C48.5015 14.864 49.2375 14.648 49.7175 14.216C50.2135 13.784 50.4615 13.184 50.4615 12.416C50.4615 11.632 50.2135 11.024 49.7175 10.592C49.2375 10.16 48.5015 9.944 47.5095 9.944H42.7575L44.8695 7.76V17.048ZM69.0452 23V15.896L70.1492 18.752L62.6372 6.2H67.6532L73.0772 15.296H70.1732L75.6212 6.2H80.2292L72.7412 18.752L73.7972 15.896V23H69.0452ZM78.3671 23L85.7831 6.2H90.4631L97.9031 23H92.9591L87.1511 8.528H89.0231L83.2151 23H78.3671ZM82.4231 19.736L83.6471 16.232H91.8551L93.0791 19.736H82.4231ZM103.498 19.28L103.234 13.952L110.458 6.2H115.69L108.49 14L105.85 16.76L103.498 19.28ZM99.2503 23V6.2H103.954V23H99.2503ZM110.53 23L105.058 16.064L108.154 12.752L116.05 23H110.53ZM117.297 23V6.2H124.977C126.513 6.2 127.833 6.448 128.937 6.944C130.057 7.44 130.921 8.16 131.529 9.104C132.137 10.032 132.441 11.136 132.441 12.416C132.441 13.68 132.137 14.776 131.529 15.704C130.921 16.632 130.057 17.352 128.937 17.864C127.833 18.36 126.513 18.608 124.977 18.608H119.937L122.049 16.544V23H117.297ZM122.049 17.048L119.937 14.864H124.689C125.681 14.864 126.417 14.648 126.897 14.216C127.393 13.784 127.641 13.184 127.641 12.416C127.641 11.632 127.393 11.024 126.897 10.592C126.417 10.16 125.681 9.944 124.689 9.944H119.937L122.049 7.76V17.048ZM134.758 23V6.2H139.51V23H134.758ZM151.459 23V7.904L153.499 9.872H148.339V6.2H156.211V23H151.459ZM166.586 23V6.2H174.53C176.386 6.2 178.018 6.544 179.426 7.232C180.834 7.92 181.93 8.888 182.714 10.136C183.514 11.384 183.914 12.872 183.914 14.6C183.914 16.312 183.514 17.8 182.714 19.064C181.93 20.312 180.834 21.28 179.426 21.968C178.018 22.656 176.386 23 174.53 23H166.586ZM171.338 19.208H174.338C175.298 19.208 176.13 19.032 176.834 18.68C177.554 18.312 178.114 17.784 178.514 17.096C178.914 16.392 179.114 15.56 179.114 14.6C179.114 13.624 178.914 12.792 178.514 12.104C178.114 11.416 177.554 10.896 176.834 10.544C176.13 10.176 175.298 9.992 174.338 9.992H171.338V19.208ZM190.662 19.28L190.398 13.952L197.622 6.2H202.854L195.654 14L193.014 16.76L190.662 19.28ZM186.414 23V6.2H191.118V23H186.414ZM197.694 23L192.222 16.064L195.318 12.752L203.214 23H197.694ZM204.461 23V6.2H209.213V23H204.461ZM223.25 23.336C222.018 23.336 220.898 23.128 219.89 22.712C218.898 22.28 218.074 21.664 217.418 20.864L220.01 17.792C220.458 18.368 220.922 18.808 221.402 19.112C221.882 19.4 222.386 19.544 222.914 19.544C224.322 19.544 225.026 18.728 225.026 17.096V9.872H219.218V6.2H229.73V16.808C229.73 19 229.178 20.64 228.074 21.728C226.97 22.8 225.362 23.336 223.25 23.336ZM230.57 23L237.986 6.2H242.666L250.106 23H245.162L239.354 8.528H241.226L235.418 23H230.57ZM234.626 19.736L235.85 16.232H244.058L245.282 19.736H234.626ZM254.647 23V15.896L255.751 18.752L248.239 6.2H253.255L258.679 15.296H255.775L261.223 6.2H265.831L258.343 18.752L259.399 15.896V23H254.647ZM263.969 23L271.385 6.2H276.065L283.505 23H278.561L272.753 8.528H274.625L268.817 23H263.969ZM268.025 19.736L269.249 16.232H277.457L278.681 19.736H268.025Z" fill="#32642D"/>
</svg>
