<svg xmlns="http://www.w3.org/2000/svg" xmlns:xlink="http://www.w3.org/1999/xlink" width="1000" zoomAndPan="magnify" viewBox="0 0 750 749.999995" height="1000" preserveAspectRatio="xMidYMid meet" version="1.0"><defs><clipPath id="5ab07aa93c"><path d="M 42.738281 310 L 707.238281 310 L 707.238281 457 L 42.738281 457 Z M 42.738281 310 " clip-rule="nonzero"/></clipPath></defs><rect x="-75" width="900" fill="#ffffff" y="-74.999999" height="899.999994" fill-opacity="1"/><rect x="-75" width="900" fill="#ffffff" y="-74.999999" height="899.999994" fill-opacity="1"/><g clip-path="url(#5ab07aa93c)"><path fill="#32642d" d="M -411.039062 456.777344 C -422.550781 456.777344 -433.660156 455.371094 -444.367188 452.5625 C -454.941406 449.621094 -463.574219 445.875 -470.269531 441.324219 L -457.21875 412.027344 C -450.925781 416.039062 -443.699219 419.382812 -435.535156 422.058594 C -427.234375 424.601562 -419.003906 425.871094 -410.839844 425.871094 C -405.351562 425.871094 -400.933594 425.402344 -397.585938 424.46875 C -394.242188 423.398438 -391.832031 422.058594 -390.359375 420.453125 C -388.753906 418.714844 -387.949219 416.707031 -387.949219 414.433594 C -387.949219 411.222656 -389.421875 408.679688 -392.367188 406.808594 C -395.3125 404.933594 -399.125 403.394531 -403.8125 402.191406 C -408.496094 400.988281 -413.714844 399.785156 -419.472656 398.578125 C -425.09375 397.375 -430.78125 395.835938 -436.539062 393.964844 C -442.160156 392.089844 -447.3125 389.683594 -451.996094 386.738281 C -456.683594 383.664062 -460.496094 379.714844 -463.441406 374.898438 C -466.386719 369.949219 -467.859375 363.726562 -467.859375 356.234375 C -467.859375 347.808594 -465.582031 340.183594 -461.03125 333.359375 C -456.347656 326.535156 -449.386719 321.050781 -440.152344 316.902344 C -430.917969 312.753906 -419.40625 310.679688 -405.617188 310.679688 C -396.382812 310.679688 -387.347656 311.75 -378.511719 313.890625 C -369.546875 315.898438 -361.582031 318.910156 -354.621094 322.921875 L -366.867188 352.421875 C -373.5625 348.8125 -380.1875 346.136719 -386.746094 344.394531 C -393.304688 342.523438 -399.660156 341.585938 -405.820312 341.585938 C -411.308594 341.585938 -415.722656 342.1875 -419.070312 343.390625 C -422.417969 344.460938 -424.824219 345.933594 -426.296875 347.808594 C -427.769531 349.679688 -428.507812 351.820312 -428.507812 354.230469 C -428.507812 357.304688 -427.101562 359.78125 -424.289062 361.65625 C -421.347656 363.394531 -417.53125 364.867188 -412.847656 366.070312 C -408.027344 367.140625 -402.808594 368.277344 -397.1875 369.480469 C -391.429688 370.683594 -385.742188 372.222656 -380.121094 374.097656 C -374.363281 375.835938 -369.144531 378.242188 -364.460938 381.320312 C -359.773438 384.265625 -356.027344 388.210938 -353.214844 393.160156 C -350.269531 397.976562 -348.796875 404.066406 -348.796875 411.421875 C -348.796875 419.585938 -351.140625 427.144531 -355.824219 434.101562 C -360.375 440.921875 -367.269531 446.410156 -376.503906 450.554688 C -385.609375 454.703125 -397.117188 456.777344 -411.039062 456.777344 Z M -330.433594 453.96875 L -330.433594 313.492188 L -297.707031 313.492188 L -239.484375 409.015625 L -256.75 409.015625 L -200.132812 313.492188 L -167.40625 313.492188 L -167.003906 453.96875 L -203.542969 453.96875 L -203.945312 369.078125 L -197.722656 369.078125 L -240.085938 440.121094 L -257.753906 440.121094 L -301.324219 369.078125 L -293.691406 369.078125 L -293.691406 453.96875 Z M -138.875 453.96875 L -138.875 313.492188 L -74.625 313.492188 C -61.777344 313.492188 -50.734375 315.566406 -41.496094 319.710938 C -32.128906 323.859375 -24.898438 329.878906 -19.8125 337.773438 C -14.726562 345.53125 -12.183594 354.765625 -12.183594 365.46875 C -12.183594 376.035156 -14.726562 385.199219 -19.8125 392.960938 C -24.898438 400.71875 -32.128906 406.742188 -41.496094 411.023438 C -50.734375 415.167969 -61.777344 417.242188 -74.625 417.242188 L -116.789062 417.242188 L -99.121094 399.984375 L -99.121094 453.96875 Z M -99.121094 404.199219 L -116.789062 385.9375 L -77.035156 385.9375 C -68.738281 385.9375 -62.578125 384.128906 -58.5625 380.519531 C -54.414062 376.90625 -52.339844 371.890625 -52.339844 365.46875 C -52.339844 358.910156 -54.414062 353.828125 -58.5625 350.214844 C -62.578125 346.601562 -68.738281 344.796875 -77.035156 344.796875 L -116.789062 344.796875 L -99.121094 326.535156 Z M 103.125 453.96875 L 103.125 394.566406 L 112.363281 418.445312 L 49.519531 313.492188 L 91.480469 313.492188 L 136.855469 389.550781 L 112.5625 389.550781 L 158.136719 313.492188 L 196.6875 313.492188 L 134.046875 418.445312 L 142.878906 394.566406 L 142.878906 453.96875 Z M 181.109375 453.96875 L 243.148438 313.492188 L 282.300781 313.492188 L 344.542969 453.96875 L 303.183594 453.96875 L 254.59375 332.957031 L 270.253906 332.957031 L 221.667969 453.96875 Z M 215.042969 426.675781 L 225.28125 397.375 L 293.945312 397.375 L 304.1875 426.675781 Z M 391.347656 422.863281 L 389.136719 378.3125 L 449.574219 313.492188 L 493.339844 313.492188 L 433.109375 378.710938 L 411.023438 401.789062 Z M 355.8125 453.96875 L 355.8125 313.492188 L 395.160156 313.492188 L 395.160156 453.96875 Z M 450.175781 453.96875 L 404.398438 395.972656 L 430.296875 368.277344 L 496.351562 453.96875 Z M 506.785156 453.96875 L 506.785156 313.492188 L 571.035156 313.492188 C 583.882812 313.492188 594.925781 315.566406 604.160156 319.710938 C 613.53125 323.859375 620.757812 329.878906 625.847656 337.773438 C 630.933594 345.53125 633.476562 354.765625 633.476562 365.46875 C 633.476562 376.035156 630.933594 385.199219 625.847656 392.960938 C 620.757812 400.71875 613.53125 406.742188 604.160156 411.023438 C 594.925781 415.167969 583.882812 417.242188 571.035156 417.242188 L 528.871094 417.242188 L 546.539062 399.984375 L 546.539062 453.96875 Z M 546.539062 404.199219 L 528.871094 385.9375 L 568.625 385.9375 C 576.921875 385.9375 583.082031 384.128906 587.097656 380.519531 C 591.246094 376.90625 593.320312 371.890625 593.320312 365.46875 C 593.320312 358.910156 591.246094 353.828125 587.097656 350.214844 C 583.082031 346.601562 576.921875 344.796875 568.625 344.796875 L 528.871094 344.796875 L 546.539062 326.535156 Z M 652.859375 453.96875 L 652.859375 313.492188 L 692.613281 313.492188 L 692.613281 453.96875 Z M 792.574219 453.96875 L 792.574219 327.738281 L 809.640625 344.195312 L 766.472656 344.195312 L 766.472656 313.492188 L 832.328125 313.492188 L 832.328125 453.96875 Z M 919.121094 453.96875 L 919.121094 313.492188 L 985.578125 313.492188 C 1001.105469 313.492188 1014.757812 316.367188 1026.535156 322.121094 C 1038.316406 327.875 1047.484375 335.96875 1054.042969 346.402344 C 1060.734375 356.839844 1064.082031 369.28125 1064.082031 383.730469 C 1064.082031 398.042969 1060.734375 410.488281 1054.042969 421.054688 C 1047.484375 431.492188 1038.316406 439.585938 1026.535156 445.339844 C 1014.757812 451.089844 1001.105469 453.96875 985.578125 453.96875 Z M 958.875 422.261719 L 983.972656 422.261719 C 992.003906 422.261719 998.964844 420.789062 1004.851562 417.84375 C 1010.875 414.769531 1015.5625 410.351562 1018.90625 404.601562 C 1022.253906 398.714844 1023.925781 391.757812 1023.925781 383.730469 C 1023.925781 375.570312 1022.253906 368.613281 1018.90625 362.859375 C 1015.5625 357.105469 1010.875 352.757812 1004.851562 349.8125 C 998.964844 346.738281 992.003906 345.199219 983.972656 345.199219 L 958.875 345.199219 Z M 1120.535156 422.863281 L 1118.324219 378.3125 L 1178.757812 313.492188 L 1222.527344 313.492188 L 1162.296875 378.710938 L 1140.210938 401.789062 Z M 1084.996094 453.96875 L 1084.996094 313.492188 L 1124.347656 313.492188 L 1124.347656 453.96875 Z M 1179.363281 453.96875 L 1133.585938 395.972656 L 1159.484375 368.277344 L 1225.539062 453.96875 Z M 1235.972656 453.96875 L 1235.972656 313.492188 L 1275.726562 313.492188 L 1275.726562 453.96875 Z M 1393.15625 456.777344 C 1382.847656 456.777344 1373.480469 455.039062 1365.046875 451.558594 C 1356.746094 447.949219 1349.855469 442.796875 1344.367188 436.105469 L 1366.050781 410.421875 C 1369.796875 415.234375 1373.679688 418.914062 1377.695312 421.457031 C 1381.710938 423.867188 1385.925781 425.070312 1390.34375 425.070312 C 1402.125 425.070312 1408.011719 418.246094 1408.011719 404.601562 L 1408.011719 344.195312 L 1359.425781 344.195312 L 1359.425781 313.492188 L 1447.363281 313.492188 L 1447.363281 402.191406 C 1447.363281 420.519531 1442.746094 434.234375 1433.511719 443.332031 C 1424.273438 452.296875 1410.824219 456.777344 1393.15625 456.777344 Z M 1454.390625 453.96875 L 1516.433594 313.492188 L 1555.582031 313.492188 L 1617.824219 453.96875 L 1576.464844 453.96875 L 1527.875 332.957031 L 1543.535156 332.957031 L 1494.949219 453.96875 Z M 1488.324219 426.675781 L 1498.5625 397.375 L 1567.226562 397.375 L 1577.46875 426.675781 Z M 1655.8125 453.96875 L 1655.8125 394.566406 L 1665.046875 418.445312 L 1602.207031 313.492188 L 1644.167969 313.492188 L 1689.542969 389.550781 L 1665.25 389.550781 L 1710.824219 313.492188 L 1749.375 313.492188 L 1686.730469 418.445312 L 1695.566406 394.566406 L 1695.566406 453.96875 Z M 1733.796875 453.96875 L 1795.835938 313.492188 L 1834.988281 313.492188 L 1897.230469 453.96875 L 1855.871094 453.96875 L 1807.28125 332.957031 L 1822.941406 332.957031 L 1774.355469 453.96875 Z M 1767.730469 426.675781 L 1777.96875 397.375 L 1846.632812 397.375 L 1856.875 426.675781 Z M 1767.730469 426.675781 " fill-opacity="1" fill-rule="nonzero"/></g></svg>